<svg width="600" height="600" viewBox="0 0 600 600" fill="none" xmlns="http://www.w3.org/2000/svg">
<rect width="600" height="600" fill="black"/>
<rect x="177.5" y="129.5" width="245" height="245" fill="#333333" stroke="black" stroke-width="5"/>
<path d="M53.4844 459V402.984H84.1484C93.2109 402.984 97.7422 407.529 97.7422 416.617V424.586C97.7422 433.674 93.2109 438.219 84.1484 438.219H61.4922V459H53.4844ZM61.4922 430.211H83.7188C85.8542 430.211 87.3906 429.742 88.3281 428.805C89.2656 427.867 89.7344 426.331 89.7344 424.195V417.008C89.7344 414.872 89.2656 413.336 88.3281 412.398C87.3906 411.461 85.8542 410.992 83.7188 410.992H61.4922V430.211ZM115.828 425.094V459H108.172V417.398H115.828V424.742C115.88 423.727 116.115 422.776 116.531 421.891C116.948 420.979 117.495 420.198 118.172 419.547C118.875 418.87 119.682 418.349 120.594 417.984C121.505 417.594 122.482 417.398 123.523 417.398H131.688C132.755 417.398 133.745 417.607 134.656 418.023C135.594 418.414 136.414 418.961 137.117 419.664C137.82 420.341 138.367 421.148 138.758 422.086C139.174 423.023 139.383 424.026 139.383 425.094V432.125H131.688V425.094H115.828ZM184.93 451.305C184.93 452.372 184.721 453.375 184.305 454.312C183.914 455.25 183.367 456.07 182.664 456.773C181.987 457.451 181.18 457.997 180.242 458.414C179.331 458.805 178.341 459 177.273 459H156.609C155.568 459 154.578 458.805 153.641 458.414C152.703 457.997 151.883 457.451 151.18 456.773C150.503 456.07 149.956 455.25 149.539 454.312C149.148 453.375 148.953 452.372 148.953 451.305V425.094C148.953 424.026 149.148 423.023 149.539 422.086C149.956 421.148 150.503 420.341 151.18 419.664C151.883 418.961 152.703 418.414 153.641 418.023C154.578 417.607 155.568 417.398 156.609 417.398H177.273C178.341 417.398 179.331 417.607 180.242 418.023C181.18 418.414 181.987 418.961 182.664 419.664C183.367 420.341 183.914 421.148 184.305 422.086C184.721 423.023 184.93 424.026 184.93 425.094V451.305ZM156.609 425.094V451.305H177.273V425.094H156.609ZM234.031 417.398L218.914 437.711L234.734 459H225.438L214.266 443.961L203.055 459H193.758L209.617 437.711L194.5 417.398H203.758L214.266 431.461L224.734 417.398H234.031ZM251.648 417.398V459H243.953V417.398H251.648ZM243.562 401.383H252.039V409.391H243.562V401.383ZM297.859 425.094V459H290.164V425.094H272.547V459H264.891V417.398H272.547V424.742C272.599 423.727 272.833 422.776 273.25 421.891C273.667 420.979 274.214 420.198 274.891 419.547C275.594 418.87 276.401 418.349 277.312 417.984C278.224 417.594 279.201 417.398 280.242 417.398H290.164C291.18 417.398 292.143 417.594 293.055 417.984C293.966 418.349 294.773 418.87 295.477 419.547C296.18 420.198 296.74 420.979 297.156 421.891C297.599 422.776 297.833 423.727 297.859 424.742C297.911 423.727 298.133 422.776 298.523 421.891C298.94 420.979 299.487 420.198 300.164 419.547C300.867 418.87 301.674 418.349 302.586 417.984C303.497 417.594 304.474 417.398 305.516 417.398H315.438C316.505 417.398 317.508 417.607 318.445 418.023C319.383 418.414 320.19 418.961 320.867 419.664C321.57 420.341 322.117 421.148 322.508 422.086C322.924 423.023 323.133 424.026 323.133 425.094V459H315.438V425.094H297.859ZM335.984 417.398H343.641V451.305H365.086V417.398H372.781V459H365.086V451.969C365.008 452.932 364.747 453.844 364.305 454.703C363.862 455.562 363.289 456.318 362.586 456.969C361.909 457.594 361.128 458.089 360.242 458.453C359.357 458.818 358.419 459 357.43 459H343.641C342.599 459 341.609 458.805 340.672 458.414C339.734 457.997 338.914 457.451 338.211 456.773C337.534 456.07 336.987 455.25 336.57 454.312C336.18 453.375 335.984 452.372 335.984 451.305V417.398ZM418.562 425.094V459H410.867V425.094H393.25V459H385.594V417.398H393.25V424.742C393.302 423.727 393.536 422.776 393.953 421.891C394.37 420.979 394.917 420.198 395.594 419.547C396.297 418.87 397.104 418.349 398.016 417.984C398.927 417.594 399.904 417.398 400.945 417.398H410.867C411.883 417.398 412.846 417.594 413.758 417.984C414.669 418.349 415.477 418.87 416.18 419.547C416.883 420.198 417.443 420.979 417.859 421.891C418.302 422.776 418.536 423.727 418.562 424.742C418.615 423.727 418.836 422.776 419.227 421.891C419.643 420.979 420.19 420.198 420.867 419.547C421.57 418.87 422.378 418.349 423.289 417.984C424.201 417.594 425.177 417.398 426.219 417.398H436.141C437.208 417.398 438.211 417.607 439.148 418.023C440.086 418.414 440.893 418.961 441.57 419.664C442.273 420.341 442.82 421.148 443.211 422.086C443.628 423.023 443.836 424.026 443.836 425.094V459H436.141V425.094H418.562ZM506.258 402.984L527.859 459H519.852L514.891 446.109H489.617L484.656 459H476.648L498.25 402.984H506.258ZM492.664 438.102H511.805L502.273 413.414L492.664 438.102ZM545.477 402.984V459H537.469V402.984H545.477Z" fill="#ACACAC"/>
<rect x="177.5" y="129.5" width="195" height="195" fill="#5C5C5C" stroke="black" stroke-width="5"/>
<rect x="227.5" y="179.5" width="145" height="145" fill="#7D7D7D" stroke="black" stroke-width="5"/>
<rect x="227.5" y="179.5" width="95" height="95" fill="#979797" stroke="black" stroke-width="5"/>
<rect x="277.5" y="229.5" width="45" height="45" fill="#ACACAC" stroke="black" stroke-width="5"/>
</svg>
